{"asset":{"version":"2.0","generator":"Blockbench 5.0.4 glTF exporter"},"scenes":[{"nodes":[12],"name":"blockbench_export"}],"scene":0,"nodes":[{"name":"Fingers","mesh":0},{"translation":[-0.25,0,-0.375],"name":"Thumb","mesh":1},{"name":"Glove Thing","mesh":2},{"translation":[-0.875,0.4375,0],"name":"Hand","children":[0,1,2]},{"name":"Fingers","mesh":3},{"translation":[0.25,0,-0.375],"name":"Thumb","mesh":4},{"name":"Glove Thing","mesh":5},{"translation":[0.875,0.4375,0],"name":"Hand2","children":[4,5,6]},{"rotation":[0,-0.21643961393810288,0,0.9762960071199334],"name":"Head","mesh":6},{"translation":[0,-0.625,0],"name":"Treads","mesh":7},{"translation":[0,-0.375,0],"name":"Core","mesh":8},{"name":"Body","children":[8,9,10]},{"translation":[0,0.5625,0],"name":"Root","children":[3,7,11]}],"bufferViews":[{"buffer":0,"byteOffset":0,"byteLength":288,"target":34962,"byteStride":12},{"buffer":0,"byteOffset":288,"byteLength":288,"target":34962,"byteStride":12},{"buffer":0,"byteOffset":576,"byteLength":192,"target":34962,"byteStride":8},{"buffer":0,"byteOffset":768,"byteLength":72,"target":34963},{"buffer":0,"byteOffset":840,"byteLength":288,"target":34962,"byteStride":12},{"buffer":0,"byteOffset":1128,"byteLength":288,"target":34962,"byteStride":12},{"buffer":0,"byteOffset":1416,"byteLength":192,"target":34962,"byteStride":8},{"buffer":0,"byteOffset":1608,"byteLength":72,"target":34963},{"buffer":0,"byteOffset":1680,"byteLength":288,"target":34962,"byteStride":12},{"buffer":0,"byteOffset":1968,"byteLength":288,"target":34962,"byteStride":12},{"buffer":0,"byteOffset":2256,"byteLength":192,"target":34962,"byteStride":8},{"buffer":0,"byteOffset":2448,"byteLength":72,"target":34963},{"buffer":0,"byteOffset":2520,"byteLength":288,"target":34962,"byteStride":12},{"buffer":0,"byteOffset":2808,"byteLength":288,"target":34962,"byteStride":12},{"buffer":0,"byteOffset":3096,"byteLength":192,"target":34962,"byteStride":8},{"buffer":0,"byteOffset":3288,"byteLength":72,"target":34963},{"buffer":0,"byteOffset":3360,"byteLength":288,"target":34962,"byteStride":12},{"buffer":0,"byteOffset":3648,"byteLength":288,"target":34962,"byteStride":12},{"buffer":0,"byteOffset":3936,"byteLength":192,"target":34962,"byteStride":8},{"buffer":0,"byteOffset":4128,"byteLength":72,"target":34963},{"buffer":0,"byteOffset":4200,"byteLength":288,"target":34962,"byteStride":12},{"buffer":0,"byteOffset":4488,"byteLength":288,"target":34962,"byteStride":12},{"buffer":0,"byteOffset":4776,"byteLength":192,"target":34962,"byteStride":8},{"buffer":0,"byteOffset":4968,"byteLength":72,"target":34963},{"buffer":0,"byteOffset":5040,"byteLength":2340,"target":34962,"byteStride":12},{"buffer":0,"byteOffset":7380,"byteLength":2340,"target":34962,"byteStride":12},{"buffer":0,"byteOffset":9720,"byteLength":1560,"target":34962,"byteStride":8},{"buffer":0,"byteOffset":11280,"byteLength":536,"target":34963},{"buffer":0,"byteOffset":11816,"byteLength":1152,"target":34962,"byteStride":12},{"buffer":0,"byteOffset":12968,"byteLength":1152,"target":34962,"byteStride":12},{"buffer":0,"byteOffset":14120,"byteLength":768,"target":34962,"byteStride":8},{"buffer":0,"byteOffset":14888,"byteLength":264,"target":34963},{"buffer":0,"byteOffset":15152,"byteLength":720,"target":34962,"byteStride":12},{"buffer":0,"byteOffset":15872,"byteLength":720,"target":34962,"byteStride":12},{"buffer":0,"byteOffset":16592,"byteLength":480,"target":34962,"byteStride":8},{"buffer":0,"byteOffset":17072,"byteLength":144,"target":34963},{"buffer":0,"byteOffset":17216,"byteLength":4},{"buffer":0,"byteOffset":17220,"byteLength":12},{"buffer":0,"byteOffset":17232,"byteLength":4},{"buffer":0,"byteOffset":17236,"byteLength":12},{"buffer":0,"byteOffset":17248,"byteLength":16},{"buffer":0,"byteOffset":17264,"byteLength":64},{"buffer":0,"byteOffset":17328,"byteLength":12},{"buffer":0,"byteOffset":17340,"byteLength":36},{"buffer":0,"byteOffset":17376,"byteLength":12},{"buffer":0,"byteOffset":17388,"byteLength":48},{"buffer":0,"byteOffset":17436,"byteLength":12},{"buffer":0,"byteOffset":17448,"byteLength":36},{"buffer":0,"byteOffset":17484,"byteLength":16},{"buffer":0,"byteOffset":17500,"byteLength":48},{"buffer":0,"byteOffset":17548,"byteLength":16},{"buffer":0,"byteOffset":17564,"byteLength":48},{"buffer":0,"byteOffset":17612,"byteLength":20},{"buffer":0,"byteOffset":17632,"byteLength":80},{"buffer":0,"byteOffset":17712,"byteLength":20},{"buffer":0,"byteOffset":17732,"byteLength":60},{"buffer":0,"byteOffset":17792,"byteLength":20},{"buffer":0,"byteOffset":17812,"byteLength":80},{"buffer":0,"byteOffset":17892,"byteLength":20},{"buffer":0,"byteOffset":17912,"byteLength":60},{"buffer":0,"byteOffset":17972,"byteLength":32},{"buffer":0,"byteOffset":18004,"byteLength":128},{"buffer":0,"byteOffset":18132,"byteLength":32},{"buffer":0,"byteOffset":18164,"byteLength":96},{"buffer":0,"byteOffset":18260,"byteLength":32},{"buffer":0,"byteOffset":18292,"byteLength":128},{"buffer":0,"byteOffset":18420,"byteLength":32},{"buffer":0,"byteOffset":18452,"byteLength":96},{"buffer":0,"byteOffset":18548,"byteLength":4},{"buffer":0,"byteOffset":18552,"byteLength":16},{"buffer":0,"byteOffset":18568,"byteLength":4},{"buffer":0,"byteOffset":18572,"byteLength":12},{"buffer":0,"byteOffset":18584,"byteLength":4},{"buffer":0,"byteOffset":18588,"byteLength":16},{"buffer":0,"byteOffset":18604,"byteLength":4},{"buffer":0,"byteOffset":18608,"byteLength":12},{"buffer":0,"byteOffset":18620,"byteLength":4},{"buffer":0,"byteOffset":18624,"byteLength":16},{"buffer":0,"byteOffset":18640,"byteLength":4},{"buffer":0,"byteOffset":18644,"byteLength":12},{"buffer":0,"byteOffset":18656,"byteLength":4},{"buffer":0,"byteOffset":18660,"byteLength":16},{"buffer":0,"byteOffset":18676,"byteLength":4},{"buffer":0,"byteOffset":18680,"byteLength":12},{"buffer":0,"byteOffset":18692,"byteLength":4},{"buffer":0,"byteOffset":18696,"byteLength":16},{"buffer":0,"byteOffset":18712,"byteLength":4},{"buffer":0,"byteOffset":18716,"byteLength":12},{"buffer":0,"byteOffset":18728,"byteLength":4},{"buffer":0,"byteOffset":18732,"byteLength":16}],"buffers":[{"byteLength":18748,"uri":"data:application/octet-stream;base64,"}],"accessors":[{"bufferView":0,"componentType":5126,"count":24,"max":[-0.0625,0.375,0.1875],"min":[-0.5,0.0625,-0.1875],"type":"VEC3"},{"bufferView":1,"componentType":5126,"count":24,"max":[1,0.9899494647979736,1],"min":[-1,-1,-1],"type":"VEC3"},{"bufferView":2,"componentType":5126,"count":24,"max":[0.5,0.46875],"min":[0.1328125,0.09375],"type":"VEC2"},{"bufferView":3,"componentType":5123,"count":36,"max":[23],"min":[0],"type":"SCALAR"},{"bufferView":4,"componentType":5126,"count":24,"max":[0.1875,0.1875,0.1875],"min":[-0.0625,0,-0.0625],"type":"VEC3"},{"bufferView":5,"componentType":5126,"count":24,"max":[1,1,1],"min":[-1,-1,-1],"type":"VEC3"},{"bufferView":6,"componentType":5126,"count":24,"max":[0.5390625,0.5390625],"min":[0.15625,0.09375],"type":"VEC2"},{"bufferView":7,"componentType":5123,"count":36,"max":[23],"min":[0],"type":"SCALAR"},{"bufferView":8,"componentType":5126,"count":24,"max":[0.0625,0.40625,0.21875],"min":[-0.0625,-0.03125,-0.21875],"type":"VEC3"},{"bufferView":9,"componentType":5126,"count":24,"max":[1,1,1],"min":[-1,-1,-1],"type":"VEC3"},{"bufferView":10,"componentType":5126,"count":24,"max":[0.359375,0.5625],"min":[0.0390625,0.15625],"type":"VEC2"},{"bufferView":11,"componentType":5123,"count":36,"max":[23],"min":[0],"type":"SCALAR"},{"bufferView":12,"componentType":5126,"count":24,"max":[0.5,0.375,0.1875],"min":[0.0625,0.0625,-0.1875],"type":"VEC3"},{"bufferView":13,"componentType":5126,"count":24,"max":[1,0.9899494647979736,1],"min":[-1,-1,-1],"type":"VEC3"},{"bufferView":14,"componentType":5126,"count":24,"max":[0.5,0.46875],"min":[0.1328125,0.09375],"type":"VEC2"},{"bufferView":15,"componentType":5123,"count":36,"max":[23],"min":[0],"type":"SCALAR"},{"bufferView":16,"componentType":5126,"count":24,"max":[0.0625,0.1875,0.1875],"min":[-0.1875,0,-0.0625],"type":"VEC3"},{"bufferView":17,"componentType":5126,"count":24,"max":[1,1,1],"min":[-1,-1,-1],"type":"VEC3"},{"bufferView":18,"componentType":5126,"count":24,"max":[0.5390625,0.5390625],"min":[0.15625,0.09375],"type":"VEC2"},{"bufferView":19,"componentType":5123,"count":36,"max":[23],"min":[0],"type":"SCALAR"},{"bufferView":20,"componentType":5126,"count":24,"max":[0.0625,0.40625,0.21875],"min":[-0.0625,-0.03125,-0.21875],"type":"VEC3"},{"bufferView":21,"componentType":5126,"count":24,"max":[1,1,1],"min":[-1,-1,-1],"type":"VEC3"},{"bufferView":22,"componentType":5126,"count":24,"max":[0.359375,0.5625],"min":[0.0390625,0.15625],"type":"VEC2"},{"bufferView":23,"componentType":5123,"count":36,"max":[23],"min":[0],"type":"SCALAR"},{"bufferView":24,"componentType":5126,"count":195,"max":[0.5072287321090698,1.1875,0.46875],"min":[-0.5072287321090698,0,-0.6815537214279175],"type":"VEC3"},{"bufferView":25,"componentType":5126,"count":195,"max":[0.9749281406402588,1,1],"min":[-0.9749281406402588,-1,-0.9213699698448181],"type":"VEC3"},{"bufferView":26,"componentType":5126,"count":195,"max":[0.375,0.5094499588012695],"min":[0,0],"type":"VEC2"},{"bufferView":27,"componentType":5123,"count":267,"max":[194],"min":[0],"type":"SCALAR"},{"bufferView":28,"componentType":5126,"count":96,"max":[0.5,0.4375,0.5],"min":[-0.5,0.0625,-0.5],"type":"VEC3"},{"bufferView":29,"componentType":5126,"count":96,"max":[1,1,1],"min":[-1,-1,-1],"type":"VEC3"},{"bufferView":30,"componentType":5126,"count":96,"max":[0.546875,0.453125],"min":[0,0],"type":"VEC2"},{"bufferView":31,"componentType":5123,"count":132,"max":[95],"min":[0],"type":"SCALAR"},{"bufferView":32,"componentType":5126,"count":60,"max":[0.20235000550746918,0.4375,0.1875],"min":[-0.20235000550746918,0.0625,-0.1875],"type":"VEC3"},{"bufferView":33,"componentType":5126,"count":60,"max":[0.8800525069236755,1,1],"min":[-0.8800525069236755,-1,-1],"type":"VEC3"},{"bufferView":34,"componentType":5126,"count":60,"max":[0.484375,0.5234375],"min":[0,0.09375],"type":"VEC2"},{"bufferView":35,"componentType":5123,"count":72,"max":[59],"min":[0],"type":"SCALAR"},{"bufferView":36,"componentType":5126,"count":1,"max":[0],"min":[0],"type":"SCALAR"},{"bufferView":37,"componentType":5126,"count":1,"max":[0,0.5625,0],"min":[0,0.5625,0],"type":"VEC3"},{"bufferView":38,"componentType":5126,"count":1,"max":[0],"min":[0],"type":"SCALAR"},{"bufferView":39,"componentType":5126,"count":1,"max":[1,0.8999999761581421,1],"min":[1,0.8999999761581421,1],"type":"VEC3"},{"bufferView":40,"componentType":5126,"count":4,"max":[0.75],"min":[0],"type":"SCALAR"},{"bufferView":41,"componentType":5126,"count":4,"max":[-0.6558502316474915,0.35751432180404663,-9.314870951792294e-18,6.051969013559701e-17],"min":[-0.9883615374565125,0.13794969022274017,-0.6935199499130249,-0.31154754757881165],"type":"VEC4"},{"bufferView":42,"componentType":5126,"count":3,"max":[0.75],"min":[0],"type":"SCALAR"},{"bufferView":43,"componentType":5126,"count":3,"max":[-0.5625,1.6875,0.125],"min":[-0.75,0.25,-0.6875],"type":"VEC3"},{"bufferView":44,"componentType":5126,"count":3,"max":[0.75],"min":[0],"type":"SCALAR"},{"bufferView":45,"componentType":5126,"count":3,"max":[0.9938327074050903,0.40372246503829956,-6.790045647810455e-18,0.43238726258277893],"min":[0.6695055961608887,0.11088985949754715,-0.6695055961608887,-6.085470490112588e-17],"type":"VEC4"},{"bufferView":46,"componentType":5126,"count":3,"max":[0.75],"min":[0],"type":"SCALAR"},{"bufferView":47,"componentType":5126,"count":3,"max":[0.5625,1.6875,0.125],"min":[0.5625,0.3125,-0.8125],"type":"VEC3"},{"bufferView":48,"componentType":5126,"count":4,"max":[0.20833000540733337],"min":[0],"type":"SCALAR"},{"bufferView":49,"componentType":5126,"count":4,"max":[0,0,0],"min":[0,-0.25,0],"type":"VEC3"},{"bufferView":50,"componentType":5126,"count":4,"max":[0.20833000540733337],"min":[0],"type":"SCALAR"},{"bufferView":51,"componentType":5126,"count":4,"max":[1,1,1],"min":[1,0.6055999994277954,1],"type":"VEC3"},{"bufferView":52,"componentType":5126,"count":5,"max":[1],"min":[0],"type":"SCALAR"},{"bufferView":53,"componentType":5126,"count":5,"max":[0.3672817051410675,0.5061372518539429,0.6895083785057068,0.8638588190078735],"min":[-0.1624034345149994,-0.6169664859771729,0.28534409403800964,0.6360248923301697],"type":"VEC4"},{"bufferView":54,"componentType":5126,"count":5,"max":[1],"min":[0],"type":"SCALAR"},{"bufferView":55,"componentType":5126,"count":5,"max":[-0.75,0.5625,0.75],"min":[-0.8125,0.1875,-0.875],"type":"VEC3"},{"bufferView":56,"componentType":5126,"count":5,"max":[1],"min":[0],"type":"SCALAR"},{"bufferView":57,"componentType":5126,"count":5,"max":[0.33422666788101196,0.39977243542671204,-0.43890368938446045,0.8610720038414001],"min":[-0.0355563685297966,-0.2461024969816208,-0.6898868083953857,0.6916612982749939],"type":"VEC4"},{"bufferView":58,"componentType":5126,"count":5,"max":[1],"min":[0],"type":"SCALAR"},{"bufferView":59,"componentType":5126,"count":5,"max":[0.875,0.5625,0.5],"min":[0.71875,0.15625,-0.625],"type":"VEC3"},{"bufferView":60,"componentType":5126,"count":8,"max":[0.375],"min":[0],"type":"SCALAR"},{"bufferView":61,"componentType":5126,"count":8,"max":[0,0,0.7139297127723694,0.8064445853233337],"min":[0,0,0.591309666633606,0.7002173662185669],"type":"VEC4"},{"bufferView":62,"componentType":5126,"count":8,"max":[0.375],"min":[0],"type":"SCALAR"},{"bufferView":63,"componentType":5126,"count":8,"max":[-0.6875,0.4375,0],"min":[-0.6875,0.1875,0],"type":"VEC3"},{"bufferView":64,"componentType":5126,"count":8,"max":[0.375],"min":[0],"type":"SCALAR"},{"bufferView":65,"componentType":5126,"count":8,"max":[0,0,-0.591309666633606,0.8064445853233337],"min":[0,0,-0.7139297127723694,0.7002173662185669],"type":"VEC4"},{"bufferView":66,"componentType":5126,"count":8,"max":[0.375],"min":[0],"type":"SCALAR"},{"bufferView":67,"componentType":5126,"count":8,"max":[0.6875,0.4375,0],"min":[0.6875,0.1875,0],"type":"VEC3"},{"bufferView":68,"componentType":5126,"count":1,"max":[0],"min":[0],"type":"SCALAR"},{"bufferView":69,"componentType":5126,"count":1,"max":[0,0,0.6259234547615051,0.7798844575881958],"min":[0,0,0.6259234547615051,0.7798844575881958],"type":"VEC4"},{"bufferView":70,"componentType":5126,"count":1,"max":[0],"min":[0],"type":"SCALAR"},{"bufferView":71,"componentType":5126,"count":1,"max":[-0.6875,0,0],"min":[-0.6875,0,0],"type":"VEC3"},{"bufferView":72,"componentType":5126,"count":1,"max":[0],"min":[0],"type":"SCALAR"},{"bufferView":73,"componentType":5126,"count":1,"max":[0,0,-0.6259234547615051,0.7798844575881958],"min":[0,0,-0.6259234547615051,0.7798844575881958],"type":"VEC4"},{"bufferView":74,"componentType":5126,"count":1,"max":[0],"min":[0],"type":"SCALAR"},{"bufferView":75,"componentType":5126,"count":1,"max":[0.6875,0,0],"min":[0.6875,0,0],"type":"VEC3"},{"bufferView":76,"componentType":5126,"count":1,"max":[0],"min":[0],"type":"SCALAR"},{"bufferView":77,"componentType":5126,"count":1,"max":[-0.10886687785387039,0,0,0.9940563440322876],"min":[-0.10886687785387039,0,0,0.9940563440322876],"type":"VEC4"},{"bufferView":78,"componentType":5126,"count":1,"max":[0],"min":[0],"type":"SCALAR"},{"bufferView":79,"componentType":5126,"count":1,"max":[0,0,0.0625],"min":[0,0,0.0625],"type":"VEC3"},{"bufferView":80,"componentType":5126,"count":1,"max":[0],"min":[0],"type":"SCALAR"},{"bufferView":81,"componentType":5126,"count":1,"max":[0,0,-0.6427876353263855,0.7660444378852844],"min":[0,0,-0.6427876353263855,0.7660444378852844],"type":"VEC4"},{"bufferView":82,"componentType":5126,"count":1,"max":[0],"min":[0],"type":"SCALAR"},{"bufferView":83,"componentType":5126,"count":1,"max":[-0.875,1.3125,0.125],"min":[-0.875,1.3125,0.125],"type":"VEC3"},{"bufferView":84,"componentType":5126,"count":1,"max":[0],"min":[0],"type":"SCALAR"},{"bufferView":85,"componentType":5126,"count":1,"max":[0,0,0.6427876353263855,0.7660444378852844],"min":[0,0,0.6427876353263855,0.7660444378852844],"type":"VEC4"},{"bufferView":86,"componentType":5126,"count":1,"max":[0],"min":[0],"type":"SCALAR"},{"bufferView":87,"componentType":5126,"count":1,"max":[0.875,1.3125,0.125],"min":[0.875,1.3125,0.125],"type":"VEC3"},{"bufferView":88,"componentType":5126,"count":1,"max":[0],"min":[0],"type":"SCALAR"},{"bufferView":89,"componentType":5126,"count":1,"max":[0.06540312618017197,0,0,0.9978589415550232],"min":[0.06540312618017197,0,0,0.9978589415550232],"type":"VEC4"}],"materials":[{"pbrMetallicRoughness":{"metallicFactor":0,"roughnessFactor":1,"baseColorTexture":{"index":0}},"alphaMode":"MASK","alphaCutoff":0.05,"doubleSided":true}],"textures":[{"sampler":0,"source":0,"name":"PlayerTexture.png"}],"samplers":[{"magFilter":9728,"minFilter":9728,"wrapS":33071,"wrapT":33071}],"images":[{"mimeType":"image/png","uri":"data:image/png;base64,"}],"meshes":[{"primitives":[{"mode":4,"attributes":{"POSITION":0,"NORMAL":1,"TEXCOORD_0":2},"indices":3,"material":0}]},{"primitives":[{"mode":4,"attributes":{"POSITION":4,"NORMAL":5,"TEXCOORD_0":6},"indices":7,"material":0}]},{"primitives":[{"mode":4,"attributes":{"POSITION":8,"NORMAL":9,"TEXCOORD_0":10},"indices":11,"material":0}]},{"primitives":[{"mode":4,"attributes":{"POSITION":12,"NORMAL":13,"TEXCOORD_0":14},"indices":15,"material":0}]},{"primitives":[{"mode":4,"attributes":{"POSITION":16,"NORMAL":17,"TEXCOORD_0":18},"indices":19,"material":0}]},{"primitives":[{"mode":4,"attributes":{"POSITION":20,"NORMAL":21,"TEXCOORD_0":22},"indices":23,"material":0}]},{"primitives":[{"mode":4,"attributes":{"POSITION":24,"NORMAL":25,"TEXCOORD_0":26},"indices":27,"material":0}]},{"primitives":[{"mode":4,"attributes":{"POSITION":28,"NORMAL":29,"TEXCOORD_0":30},"indices":31,"material":0}]},{"primitives":[{"mode":4,"attributes":{"POSITION":32,"NORMAL":33,"TEXCOORD_0":34},"indices":35,"material":0}]}],"animations":[{"name":"Pick Up","samplers":[{"input":36,"output":37,"interpolation":"LINEAR"},{"input":38,"output":39,"interpolation":"LINEAR"},{"input":40,"output":41,"interpolation":"LINEAR"},{"input":42,"output":43,"interpolation":"LINEAR"},{"input":44,"output":45,"interpolation":"LINEAR"},{"input":46,"output":47,"interpolation":"LINEAR"},{"input":48,"output":49,"interpolation":"LINEAR"},{"input":50,"output":51,"interpolation":"LINEAR"}],"channels":[{"sampler":0,"target":{"node":12,"path":"translation"}},{"sampler":1,"target":{"node":12,"path":"scale"}},{"sampler":2,"target":{"node":3,"path":"rotation"}},{"sampler":3,"target":{"node":3,"path":"translation"}},{"sampler":4,"target":{"node":7,"path":"rotation"}},{"sampler":5,"target":{"node":7,"path":"translation"}},{"sampler":6,"target":{"node":11,"path":"translation"}},{"sampler":7,"target":{"node":11,"path":"scale"}}]},{"name":"Run","samplers":[{"input":52,"output":53,"interpolation":"LINEAR"},{"input":54,"output":55,"interpolation":"LINEAR"},{"input":56,"output":57,"interpolation":"LINEAR"},{"input":58,"output":59,"interpolation":"LINEAR"}],"channels":[{"sampler":0,"target":{"node":3,"path":"rotation"}},{"sampler":1,"target":{"node":3,"path":"translation"}},{"sampler":2,"target":{"node":7,"path":"rotation"}},{"sampler":3,"target":{"node":7,"path":"translation"}}]},{"name":"idle","samplers":[{"input":60,"output":61,"interpolation":"LINEAR"},{"input":62,"output":63,"interpolation":"LINEAR"},{"input":64,"output":65,"interpolation":"LINEAR"},{"input":66,"output":67,"interpolation":"LINEAR"}],"channels":[{"sampler":0,"target":{"node":3,"path":"rotation"}},{"sampler":1,"target":{"node":3,"path":"translation"}},{"sampler":2,"target":{"node":7,"path":"rotation"}},{"sampler":3,"target":{"node":7,"path":"translation"}}]},{"name":"Jump","samplers":[{"input":68,"output":69,"interpolation":"LINEAR"},{"input":70,"output":71,"interpolation":"LINEAR"},{"input":72,"output":73,"interpolation":"LINEAR"},{"input":74,"output":75,"interpolation":"LINEAR"},{"input":76,"output":77,"interpolation":"LINEAR"},{"input":78,"output":79,"interpolation":"LINEAR"}],"channels":[{"sampler":0,"target":{"node":3,"path":"rotation"}},{"sampler":1,"target":{"node":3,"path":"translation"}},{"sampler":2,"target":{"node":7,"path":"rotation"}},{"sampler":3,"target":{"node":7,"path":"translation"}},{"sampler":4,"target":{"node":11,"path":"rotation"}},{"sampler":5,"target":{"node":11,"path":"translation"}}]},{"name":"Fall","samplers":[{"input":80,"output":81,"interpolation":"LINEAR"},{"input":82,"output":83,"interpolation":"LINEAR"},{"input":84,"output":85,"interpolation":"LINEAR"},{"input":86,"output":87,"interpolation":"LINEAR"},{"input":88,"output":89,"interpolation":"LINEAR"}],"channels":[{"sampler":0,"target":{"node":3,"path":"rotation"}},{"sampler":1,"target":{"node":3,"path":"translation"}},{"sampler":2,"target":{"node":7,"path":"rotation"}},{"sampler":3,"target":{"node":7,"path":"translation"}},{"sampler":4,"target":{"node":11,"path":"rotation"}}]}]}